{"title":"Karumadikuttan (2000) Malayalam Untouched DVD5 - Rjaa","uid":6898637,"size":5330268160,"categoryP":"video","categoryS":"movies","magnet":"?xt=urn:btih:885353f5e7e6382a39b21bce184ff2062b77aed8&amp;dn=Karumadikuttan+%282000%29+Malayalam+Untouched+DVD5+-+Rjaa&amp;tr=udp%3A%2F%2Ftracker.openbittorrent.com%3A80&amp;tr=udp%3A%2F%2Fopen.demonii.com%3A1337&amp;tr=udp%3A%2F%2Ftracker.coppersurfer.tk%3A6969&amp;tr=udp%3A%2F%2Fexodus.desync.com%3A6969","seeders":0,"leechers":1,"uploader":"rjaa","files":27,"time":1324304973,"description":"Karumadikuttan (2000) Malayalam Untouched DVD5 - Rjaa\n\nDirected by\tVinayan\nProduced by\tSamson J. Paanaadan\nScreenplay by\tJ. Pallasserry\nStory by\tVinayan\nJ. Pallasserry\nStarring\tKalabhavan Mani\nNandini\nMusic by\tMohan Sithara\nCinematography\tAzhagappan\nEditing by\tG. Murali\nStudio\tSurabhi Cinema\nDistributed by\tSurabhi Cinema\nRelease date(s)\t2001\nCountry\tIndia\nLanguage\tMalayalam\n\n\nfile info:\n\nGeneral\nComplete name : KARUMADIKUTTAN (2000) DVD5 Team Rjaa\nFormat : MPEG-PS\nFile size : 936 MiB\nDuration : 20mn 56s\nOverall bit rate : 6 250 Kbps\n\nVideo\nID : 224 (0xE0)\nFormat : MPEG Video\nFormat version : Version 2\nFormat profile : Main@Main\nFormat settings, BVOP : Yes\nFormat settings, Matrix : Custom\nDuration : 20mn 55s\nBit rate mode : Variable\nBit rate : 5 678 Kbps\nMaximum bit rate : 9 000 Kbps\nWidth : 720 pixels\nHeight : 480 pixels\nDisplay aspect ratio : 16:9\nFrame rate : 29.970 fps\nStandard : NTSC\nColor space : YUV\nChroma subsampling : 4:2:0\nBit depth : 8 bits\nScan type : Interlaced\nScan order : Top Field First\nCompression mode : Lossy\nBits/(Pixel*Frame) : 0.548\nStream size : 850 MiB (91%)\n\nAudio\nID : 189 (0xBD)-128 (0x80)\nFormat : AC-3\nFormat/Info : Audio Coding 3\nMode extension : CM (complete main)\nMuxing mode : DVD-Video\nDuration : 20mn 56s\nBit rate mode : Constant\nBit rate : 448 Kbps\nChannel(s) : 6 channels\nChannel positions : Front: L C R, Side: L R, LFE\nSampling rate : 48.0 KHz\nBit depth : 16 bits\nCompression mode : Lossy\nDelay relative to video : -511ms\nStream size : 67.1 MiB (7%)\n\n\nCD:\n &lt;a href=&quot;\nhttp://i.imgur.com/16go7.jpg&quot; rel=&quot;nofollow&quot; target=&quot;_NEW&quot;&gt;\nhttp://i.imgur.com/16go7.jpg&lt;/a&gt;\n\n\nscreenshots:\n &lt;a href=&quot;\nhttp://i.imgur.com/uRCQc.png&quot; rel=&quot;nofollow&quot; target=&quot;_NEW&quot;&gt;\nhttp://i.imgur.com/uRCQc.png&lt;/a&gt;\n &lt;a href=&quot;\nhttp://i.imgur.com/PfpcG.png&quot; rel=&quot;nofollow&quot; target=&quot;_NEW&quot;&gt;\nhttp://i.imgur.com/PfpcG.png&lt;/a&gt;\n &lt;a href=&quot;\nhttp://i.imgur.com/b7XPe.png&quot; rel=&quot;nofollow&quot; target=&quot;_NEW&quot;&gt;\nhttp://i.imgur.com/b7XPe.png&lt;/a&gt;\n &lt;a href=&quot;\nhttp://i.imgur.com/uUPLB.png&quot; rel=&quot;nofollow&quot; target=&quot;_NEW&quot;&gt;\nhttp://i.imgur.com/uUPLB.png&lt;/a&gt;\n &lt;a href=&quot;\nhttp://i.imgur.com/OIqKv.png&quot; rel=&quot;nofollow&quot; target=&quot;_NEW&quot;&gt;\nhttp://i.imgur.com/OIqKv.png&lt;/a&gt;\n &lt;a href=&quot;\nhttp://i.imgur.com/Pg9sx.png&quot; rel=&quot;nofollow&quot; target=&quot;_NEW&quot;&gt;\nhttp://i.imgur.com/Pg9sx.png&lt;/a&gt;\n &lt;a href=&quot;\nhttp://i.imgur.com/CvvRd.png&quot; rel=&quot;nofollow&quot; target=&quot;_NEW&quot;&gt;\nhttp://i.imgur.com/CvvRd.png&lt;/a&gt;\n &lt;a href=&quot;\nhttp://i.imgur.com/VbMSw.png&quot; rel=&quot;nofollow&quot; target=&quot;_NEW&quot;&gt;\nhttp://i.imgur.com/VbMSw.png&lt;/a&gt;\n &lt;a href=&quot;\nhttp://i.imgur.com/hrvSl.png&quot; rel=&quot;nofollow&quot; target=&quot;_NEW&quot;&gt;\nhttp://i.imgur.com/hrvSl.png&lt;/a&gt;\n &lt;a href=&quot;\nhttp://i.imgur.com/hUO3U.png&quot; rel=&quot;nofollow&quot; target=&quot;_NEW&quot;&gt;\nhttp://i.imgur.com/hUO3U.png&lt;/a&gt;\n &lt;a href=&quot;\nhttp://i.imgur.com/g6Zhe.png&quot; rel=&quot;nofollow&quot; target=&quot;_NEW&quot;&gt;\nhttp://i.imgur.com/g6Zhe.png&lt;/a&gt;\n &lt;a href=&quot;\nhttp://i.imgur.com/Ky7LV.png&quot; rel=&quot;nofollow&quot; target=&quot;_NEW&quot;&gt;\nhttp://i.imgur.com/Ky7LV.png&lt;/a&gt;\n\n\n!! Download - Seed - Enjoy !!\n\n\nExpecting an 700mb Dvdrip from any other teams like XmS,DME  etc","torrent":{"xt":"urn:btih:885353f5e7e6382a39b21bce184ff2062b77aed8","amp;dn":"Karumadikuttan+%282000%29+Malayalam+Untouched+DVD5+-+Rjaa","amp;tr":["udp%3A%2F%2Ftracker.openbittorrent.com%3A80","udp%3A%2F%2Fopen.demonii.com%3A1337","udp%3A%2F%2Ftracker.coppersurfer.tk%3A6969","udp%3A%2F%2Fexodus.desync.com%3A6969"],"infoHash":"885353f5e7e6382a39b21bce184ff2062b77aed8","infoHashBuffer":{"type":"Buffer","data":[136,83,83,245,231,230,56,42,57,178,27,206,24,79,242,6,43,119,174,216]},"announce":[],"urlList":[]}}